PathFileType	4	(X/Y/Z)	AB09\squats_1.trc
DataRate	CameraRate	NumFrames	NumMarkers	Units	OrigDataRate	OrigDataStartFrame	OrigNumFrames
200.000000	200.000000	4	35	mm	200.000000	124	332
Frame#	Time	C7			LSHO			STRN			LASI			RASI			LPSI			RPSI			LGTR			RGTR			LTHC			LTHL			LTHR			LKNE			LMKNE			LSHC			LSHL			LSHR			LANK			LMANK			LMT1			LMT5			LCAL			RTHC			RTHL			RTHR			RKNE			RMKNE			RSHC			RSHL			RSHR			RANK			RMANK			RMT1			RMT5			RCAL			
		X1	Y1	Z1	X2	Y2	Z2	X3	Y3	Z3	X4	Y4	Z4	X5	Y5	Z5	X6	Y6	Z6	X7	Y7	Z7	X8	Y8	Z8	X9	Y9	Z9	X10	Y10	Z10	X11	Y11	Z11	X12	Y12	Z12	X13	Y13	Z13	X14	Y14	Z14	X15	Y15	Z15	X16	Y16	Z16	X17	Y17	Z17	X18	Y18	Z18	X19	Y19	Z19	X20	Y20	Z20	X21	Y21	Z21	X22	Y22	Z22	X23	Y23	Z23	X24	Y24	Z24	X25	Y25	Z25	X26	Y26	Z26	X27	Y27	Z27	X28	Y28	Z28	X29	Y29	Z29	X30	Y30	Z30	X31	Y31	Z31	X32	Y32	Z32	X33	Y33	Z33	X34	Y34	Z34	X35	Y35	Z35	

125	20.785	-3542.158139514051	1013.429687114115	2505.307507330393	-3616.604265583593	958.0141058945394	2665.026460666926	-3594.729790500337	710.4741659611743	2513.734040065984	-3320.484236945394	599.5168903052978	2654.959679252128	-3356.519307277975	587.2344044115443	2368.900536425769	-3140.229821356389	611.526841277263	2555.038234668686	-3150.776391393897	609.6028359158757	2421.251986527227	-3225.79609037568	545.3040975658001	2722.242752514645	-3266.566161888478	555.3390358702673	2279.213649748316	-3450.668001379	533.97889305148	2748.280806304314	-3530.064376243945	572.9104358610028	2655.229292796065	-3499.264158898856	384.3582134219056	2690.707508471452	-3632.237878519166	463.644879463021	2774.455819437969	-3653.257573986059	443.7769091609547	2634.306022428591	-3526.355117392713	395.8908048277451	2756.699260690801	-3651.517133486279	317.0939003739856	2714.597683999784	-3563.361749847242	264.1160876408522	2767.287451014141	-3443.852155260191	106.0504481974321	2736.609597376723	-3487.792359102878	113.4637509824378	2644.575130645868	-3588.453299651749	76.85239906824303	2686.846638420816	-3535.478767299535	55.28042722937111	2786.748543284068	-3362.956370739787	71.48439001004944	2668.885171828763	-3492.584556618679	382.9118853632933	2305.299104783833	-3484.610970269307	510.5245423413888	2245.377373763489	-3523.28743722517	577.5416162424098	2327.72161809197	-3623.392453800458	446.6634320215704	2232.528965703536	-3646.139098864796	442.1034422737571	2386.150106546211	-3555.059758026613	274.7048474502182	2231.557972560195	-3531.202233604222	378.09492027963	2259.926354103394	-3652.215639357706	314.467977705959	2322.572128726595	-3444.401760716071	105.9805203789408	2281.66476474116	-3489.159024974226	111.433635804244	2378.356535198062	-3603.617086784621	64.50498064470726	2322.415632532005	-3549.687516864253	64.30523198889101	2218.024938531626	-3379.774207482657	69.62645657662513	2361.46744013172	
126	20.79	-3542.544255934626	1008.981617791943	2505.351067881579	-3616.736235271882	953.5790559189484	2664.980586794175	-3594.343357419033	705.9260814934161	2513.789701286321	-3319.861926438465	596.1714536785149	2654.896204957365	-3356.012129961885	584.0516511813879	2368.836798724392	-3139.49913329113	607.2433889797508	2554.890245164642	-3150.167454252673	605.3376403019615	2421.119770180581	-3225.170764083255	541.7960320105786	2722.150643617585	-3266.031818164714	551.8412774217209	2279.206856181995	-3449.95735947619	532.3018259497018	2748.11292038278	-3529.032068376986	571.6301663097411	2654.915332303271	-3499.646157079341	383.0241792598454	2690.761950431892	-3632.047287039744	463.519431809175	2774.429349560327	-3653.320113131636	443.5740337673215	2634.168328914185	-3526.258186221432	395.6596292280198	2756.753023056663	-3651.54566920332	317.0447919361156	2714.540181034426	-3563.334365612777	264.0580912165551	2767.179490107806	-3443.818761175607	106.0190975290909	2736.491452649298	-3487.814367409653	113.4187727490657	2644.509244861969	-3588.45511255713	76.87068798716531	2686.828640921614	-3535.437152366815	55.32243789394345	2786.721153041015	-3362.958649960351	71.45068471722668	2668.827029293228	-3493.115422616274	381.3438183591272	2305.324741271729	-3484.221270014179	508.9439813369183	2245.50706094462	-3522.257991710607	576.0330511626228	2328.153001968319	-3623.480708445396	446.3433312285663	2232.616221007574	-3646.297434862679	441.7549127620791	2386.432915062368	-3555.168628888379	274.6041563936508	2231.779575041788	-3531.280758378038	377.8578858639038	2260.069922331912	-3652.380408616796	314.329557410548	2322.780105862209	-3444.414414961846	106.0100865252494	2281.830370765816	-3489.193268802565	111.3529395383599	2378.51290975962	-3603.647807109031	64.49446047083158	2322.469006415528	-3549.663159792645	64.39369690921325	2218.116154249949	-3379.791116041647	69.6075197584593	2361.510917954298	
127	20.795	-3542.919134775503	1004.60320822399	2505.395784683506	-3616.856889133938	949.2170231590212	2664.942190809584	-3593.954218004374	701.4480168445264	2513.849519479031	-3319.252877703904	592.872578861647	2654.824221769284	-3355.506719509859	580.9124437534847	2368.765630631965	-3138.783023098444	603.0158121576645	2554.750405114401	-3149.574281235187	601.1274373477584	2420.995274227045	-3224.560972534418	538.3380514496116	2722.063034595123	-3265.507729549973	548.3866078292834	2279.207101975298	-3449.247270850452	530.6526141607137	2747.956701599968	-3528.003315238847	570.3645049670941	2654.611369028796	-3500.002780301822	381.7393595517053	2690.823534682886	-3631.839104026795	463.4048814861326	2774.412455075408	-3653.362962744563	443.3867703681437	2634.039848208374	-3526.144447517631	395.4288205693232	2756.813689818692	-3651.560654250135	317.0091277321054	2714.487608293816	-3563.298491550444	264.0081567991574	2767.079813278183	-3443.788312630096	105.9897307796935	2736.378146337516	-3487.833475837708	113.3768492857947	2644.444212098419	-3588.455511651036	76.88907030293379	2686.809283907867	-3535.395678651263	55.36408466886932	2786.69031753433	-3362.960063355885	71.41702269506315	2668.768347640058	-3493.625871535586	379.812717521995	2305.342785739624	-3483.819304459394	507.3903972020354	2245.627011235671	-3521.22746712721	574.541776099224	2328.576254047905	-3623.548356828095	446.0367731817311	2232.696426602339	-3646.432872398615	441.4262037689483	2386.705878152022	-3555.267484773369	274.5074184446842	2231.997620656921	-3531.3414442552	377.6236686231148	2260.206777343229	-3652.53125997238	314.2060769049846	2322.984241205265	-3444.426816318129	106.0405350456406	2281.994213021316	-3489.225579360985	111.2751216285897	2378.669967235559	-3603.684187753061	64.48523765418471	2322.523021351549	-3549.640134546084	64.48329537052913	2218.209762294613	-3379.809013897136	69.58866236048119	2361.553029881391	
128	20.8	-3543.282250978693	1000.295827969171	2505.441443752818	-3616.965802720279	944.9295541753867	2664.910754881381	-3593.562714247482	697.0418514738872	2513.913454960506	-3318.656854686942	589.6209680083983	2654.74461007478	-3355.004014338549	577.8161455217617	2368.68900750379	-3138.081874580644	598.8449491200147	2554.617691635959	-3148.996830388669	596.9730861136799	2420.877684901073	-3223.96658819436	534.9300722669932	2721.979224374465	-3264.994601330358	544.9767064664608	2279.213417135916	-3448.538084994453	529.032158944776	2747.81295764708	-3526.978637198765	569.1140091909832	2654.318286837959	-3500.333251511851	380.5055852960576	2690.892873691264	-3631.613719199602	463.3008835045275	2774.406799268821	-3653.386796496017	443.215545137269	2633.922782157224	-3526.014633802321	395.1977921344541	2756.881856446257	-3651.562515885059	316.986842155339	2714.441295551857	-3563.255073203818	263.9658469079778	2766.989633816247	-3443.760752364709	105.9625107244179	2736.270174977261	-3487.849819108197	113.3381680931116	2644.380231956887	-3588.454584309897	76.90756158180854	2686.788768266667	-3535.354441263334	55.40515165626897	2786.656035203641	-3362.960771446003	71.38353458182453	2668.709235775289	-3494.116998049287	378.3191045738786	2305.351879069673	-3483.406324324148	505.8639924422004	2245.735456330703	-3520.197708837395	573.0691172222216	2328.987982865869	-3623.596400314966	445.7431843685511	2232.767297379904	-3646.546525498376	441.1175029380564	2386.966762337855	-3555.357272483303	274.4139916552065	2232.209935040151	-3531.385757501332	377.3918698359263	2260.334806764408	-3652.668785169604	314.0974273057798	2323.182592796798	-3444.439205547189	106.0716628790661	2282.155275838387	-3489.256399080996	111.2004033842985	2378.826719325393	-3603.725701195209	64.47729592613699	2322.57753841064	-3549.618869344456	64.57350849241809	2218.304991047984	-3379.828067158985	69.56995222474784	2361.593872527697	
